<?xml version="1.0" encoding="iso-8859-1"?>
<!-- Generator: Adobe Illustrator 19.0.0, SVG Export Plug-In . SVG Version: 6.00 Build 0)  -->
<svg version="1.1" id="Layer_1" xmlns="http://www.w3.org/2000/svg" xmlns:xlink="http://www.w3.org/1999/xlink" x="0px" y="0px"
	 viewBox="0 0 512 512" style="enable-background:new 0 0 512 512;" xml:space="preserve">
<path style="fill:#FFDB2D;" d="M447.147,512H64.853c-9.425,0-17.067-7.641-17.067-17.067V108.089
	c0-9.425,7.641-17.067,17.067-17.067h382.293c9.425,0,17.067,7.641,17.067,17.067v386.844C464.213,504.359,456.572,512,447.147,512z
	"/>
<g>
	<path style="fill:#FF9900;" d="M447.147,91.022H256V512h191.147c9.425,0,17.067-7.641,17.067-17.067V108.089
		C464.213,98.664,456.572,91.022,447.147,91.022z"/>
	<path style="fill:#FF9900;" d="M381.156,302.649H130.844c-9.425,0-17.067-7.641-17.067-17.067c0-9.425,7.641-17.067,17.067-17.067
		h250.311c9.425,0,17.067,7.641,17.067,17.067C398.222,295.008,390.581,302.649,381.156,302.649z"/>
	<path style="fill:#FF9900;" d="M381.156,369.778H130.844c-9.425,0-17.067-7.641-17.067-17.067s7.641-17.067,17.067-17.067h250.311
		c9.425,0,17.067,7.641,17.067,17.067S390.581,369.778,381.156,369.778z"/>
	<path style="fill:#FF9900;" d="M381.156,436.907H130.844c-9.425,0-17.067-7.641-17.067-17.067c0-9.425,7.641-17.067,17.067-17.067
		h250.311c9.425,0,17.067,7.641,17.067,17.067C398.222,429.265,390.581,436.907,381.156,436.907z"/>
	<path style="fill:#FF9900;" d="M381.156,234.382H130.844c-9.425,0-17.067-7.641-17.067-17.067c0-9.425,7.641-17.067,17.067-17.067
		h250.311c9.425,0,17.067,7.641,17.067,17.067C398.222,226.741,390.581,234.382,381.156,234.382z"/>
</g>
<path style="fill:#B9F7F9;" d="M464.213,125.156H47.787V17.067C47.787,7.641,55.428,0,64.853,0h382.293
	c9.425,0,17.067,7.641,17.067,17.067V125.156z"/>
<path style="fill:#00D8E0;" d="M464.213,17.067C464.213,7.641,456.572,0,447.147,0H256v125.156h208.213V17.067z"/>
<g>
	<path style="fill:#FF4F19;" d="M381.156,268.516H256v34.133h125.156c9.425,0,17.067-7.641,17.067-17.067
		C398.222,276.157,390.581,268.516,381.156,268.516z"/>
	<path style="fill:#FF4F19;" d="M381.156,335.644H256v34.133h125.156c9.425,0,17.067-7.641,17.067-17.067
		S390.581,335.644,381.156,335.644z"/>
	<path style="fill:#FF4F19;" d="M381.156,402.773H256v34.133h125.156c9.425,0,17.067-7.641,17.067-17.067
		C398.222,410.415,390.581,402.773,381.156,402.773z"/>
	<path style="fill:#FF4F19;" d="M381.156,200.249H256v34.133h125.156c9.425,0,17.067-7.641,17.067-17.067
		C398.222,207.89,390.581,200.249,381.156,200.249z"/>
</g>
<g>
</g>
<g>
</g>
<g>
</g>
<g>
</g>
<g>
</g>
<g>
</g>
<g>
</g>
<g>
</g>
<g>
</g>
<g>
</g>
<g>
</g>
<g>
</g>
<g>
</g>
<g>
</g>
<g>
</g>
</svg>
