<?xml version="1.0" encoding="UTF-8" standalone="no"?>
<!DOCTYPE svg PUBLIC "-//W3C//DTD SVG 1.1//EN" "http://www.w3.org/Graphics/SVG/1.1/DTD/svg11.dtd">
<svg version="1.1" xmlns="http://www.w3.org/2000/svg" xmlns:xlink="http://www.w3.org/1999/xlink" preserveAspectRatio="xMidYMid meet" viewBox="0 0 24 24" width="24" height="24"><defs><path d="M7.03 6.03C7.14 6.06 7.24 6.03 7.31 5.94C8.18 4.73 9.6 4 11.11 4C12.16 4 13.14 4.34 13.96 4.96C14.06 5.03 14.2 5.02 14.28 4.94C15.87 3.35 18.49 2.95 20.6 4.53C21.54 5.24 22.19 6.3 22.39 7.45C22.53 8.26 22.48 9.05 22.23 9.8C22.2 9.91 22.23 10.02 22.32 10.08C23.37 10.91 24 12.18 24 13.52C24 16.08 21.8 18.14 19.21 17.88C19.11 17.87 19.01 17.92 18.96 18.02C18.24 19.51 16.73 20.47 15.04 20.47C13.45 20.47 12.02 19.63 11.25 18.28C11.19 18.18 11.07 18.13 10.96 18.16C10.58 18.27 10.18 18.33 9.78 18.33C8.4 18.33 7.13 17.69 6.3 16.6C6.25 16.52 6.17 16.49 6.07 16.5C5.84 16.53 5.6 16.54 5.37 16.54C2.16 16.54 -0.41 13.69 0.05 10.38C0.45 7.75 2.75 5.77 5.37 5.77C5.94 5.77 6.5 5.85 7.03 6.03Z" id="b875yiD2VN"></path><linearGradient id="gradientbrEvteXif" gradientUnits="userSpaceOnUse" x1="5.33" y1="1.6" x2="17.13" y2="17.99"><stop style="stop-color: #ff0000;stop-opacity: 1" offset="0%"></stop><stop style="stop-color: #230000;stop-opacity: 1" offset="100%"></stop></linearGradient><path d="M16.19 6.59L17.99 7.33L18.06 7.36L18.11 7.41L18.16 7.46L18.19 7.52L18.21 7.59L18.22 7.67L18.22 14.49L18.21 14.56L18.19 14.63L18.16 14.69L18.11 14.74L18.06 14.79L17.99 14.82L16.2 15.58L16.13 15.6L16.06 15.61L15.99 15.61L15.92 15.58L15.86 15.55L15.8 15.5L12.52 12.13L12.48 12.11L12.45 12.09L12.41 12.08L12.38 12.09L12.34 12.1L12.31 12.12L10.28 13.76L10.23 13.79L10.19 13.8L10.15 13.81L10.1 13.81L10.06 13.8L10.01 13.78L9.35 13.42L9.31 13.4L9.28 13.37L9.25 13.33L9.23 13.29L9.22 13.25L9.22 13.2L9.22 8.95L9.22 8.91L9.23 8.86L9.25 8.82L9.28 8.79L9.31 8.76L9.35 8.73L10 8.38L10.05 8.36L10.09 8.35L10.14 8.35L10.18 8.36L10.23 8.38L10.27 8.4L12.3 10.03L12.33 10.05L12.37 10.06L12.4 10.06L12.44 10.06L12.47 10.04L12.51 10.02L15.8 6.66L15.86 6.62L15.92 6.59L15.98 6.57L16.05 6.56L16.12 6.57L16.19 6.59ZM13.7 11L13.68 11.03L13.67 11.06L13.68 11.09L13.7 11.12L15.82 12.85L15.86 12.87L15.9 12.86L15.94 12.84L15.95 12.8L15.95 9.39L15.94 9.35L15.9 9.32L15.86 9.31L15.82 9.33L13.7 11ZM10.13 9.81L10.12 9.84L10.11 10.35L10.12 11.06L10.12 11.76L10.12 12.27L10.13 12.3L10.15 12.32L10.19 12.32L10.22 12.31L11.43 11.12L11.44 11.1L11.44 11.08L11.44 11.06L11.43 11.04L10.22 9.8L10.19 9.78L10.15 9.79L10.13 9.81Z" id="a8sEzcUsJ"></path></defs><g><g><g><use xlink:href="#b875yiD2VN" opacity="1" fill="url(#gradientbrEvteXif)"></use><g><use xlink:href="#b875yiD2VN" opacity="1" fill-opacity="0" stroke="#000000" stroke-width="1" stroke-opacity="0"></use></g></g><g><use xlink:href="#a8sEzcUsJ" opacity="1" fill="#ffffff" fill-opacity="1"></use><g><use xlink:href="#a8sEzcUsJ" opacity="1" fill-opacity="0" stroke="#000000" stroke-width="1" stroke-opacity="0"></use></g></g></g></g></svg>