<?xml version="1.0" encoding="utf-8"?>
<!-- Generator: Adobe Illustrator 20.1.0, SVG Export Plug-In . SVG Version: 6.00 Build 0)  -->
<svg version="1.1" id="Layer_1" xmlns="http://www.w3.org/2000/svg" xmlns:xlink="http://www.w3.org/1999/xlink" x="0px" y="0px"
	 viewBox="0 0 350 350" style="enable-background:new 0 0 350 350;" xml:space="preserve">
<style type="text/css">
	.st0{fill:url(#SVGID_1_);}
	.st1{fill:#FFFFFF;}
</style>
<g>
	<linearGradient id="SVGID_1_" gradientUnits="userSpaceOnUse" x1="237.0139" y1="76.9654" x2="125.4152" y2="231.6218">
		<stop  offset="0" style="stop-color:#9DF0D9"/>
		<stop  offset="1" style="stop-color:#6DE5D9"/>
	</linearGradient>
	<path class="st0" d="M236.6,116.3c-5.4,0-10.7,0.8-15.7,2.5c-1,0.3-2,0-2.6-0.9c-8.3-11.4-21.7-18.3-36-18.3
		c-9.9,0-19.2,3.2-26.9,9.1c-1,0.7-2.3,0.6-3.1-0.2c-15-15-39.8-18.8-59.7-3.9c-8.9,6.7-15.1,16.7-17,27.6
		c-1.3,7.6-0.8,15.1,1.5,22.2c0.3,1,0,2-0.8,2.6c-9.9,7.8-15.9,19.8-15.9,32.5c0,24.1,20.8,43.6,45.3,41.1c1-0.1,1.9,0.4,2.4,1.3
		c6.8,14.1,21.1,23.2,37.1,23.2c15,0,28.5-8,35.8-20.7c0.6-1,1.7-1.4,2.7-1.1c3.6,1,7.4,1.6,11.2,1.6c13.1,0,25.1-6.1,32.9-16.4
		c0.5-0.7,1.3-1,2.2-0.9c2.2,0.3,4.4,0.4,6.6,0.4c30.4,0,54.7-26.9,50.3-58.2C283.2,135,261.4,116.3,236.6,116.3z"/>
	<g>
		<g>
			<path class="st1" d="M182.4,124.1l-33.7,33.7c-0.6,0.6-1.5,0.6-2.1,0.1l-20.8-16.3c-0.8-0.6-1.8-0.7-2.7-0.2l-6.7,3.5
				c-0.8,0.4-1.3,1.3-1.3,2.2v42.7c0,0.9,0.5,1.8,1.3,2.2l6.8,3.6c0.9,0.5,1.9,0.4,2.7-0.2l20.8-16.5c0.6-0.5,1.5-0.4,2.1,0.1
				l33.6,33.9c1.1,1.1,2.7,1.4,4.1,0.8l18.3-7.6c1.4-0.6,2.3-1.9,2.3-3.4v-68.5c0-1.5-0.9-2.9-2.3-3.4l-18.4-7.4
				C185,122.8,183.4,123.1,182.4,124.1z M124.3,180.4c0-4.5-0.1-19.8,0-24.4c0-0.5,0.6-0.7,1-0.4l12.4,12.5c0.2,0.2,0.2,0.6,0,0.8
				l-12.4,11.9C124.9,181.1,124.3,180.9,124.3,180.4z M182.6,186.3l-21.7-17.4c-0.4-0.3-0.4-0.9,0-1.2l21.7-16.8
				c0.5-0.4,1.3,0,1.3,0.6v34.3C183.9,186.3,183.1,186.7,182.6,186.3z"/>
		</g>
	</g>
</g>
</svg>
