<?xml version="1.0" encoding="utf-8"?>
<!-- Generator: Adobe Illustrator 20.1.0, SVG Export Plug-In . SVG Version: 6.00 Build 0)  -->
<svg version="1.1" id="Layer_1" xmlns="http://www.w3.org/2000/svg" xmlns:xlink="http://www.w3.org/1999/xlink" x="0px" y="0px"
	 viewBox="0 90 350 160" style="enable-background:new 0 0 350 350;" xml:space="preserve">
<style type="text/css">
	.st0{fill:#6D6E71;}
	.st1{fill:url(#SVGID_1_);}
	.st2{fill:#FFFFFF;}
</style>
<g>
	<path class="st0" d="M27.4,194.4h29.5v1.3H28.8v22.4h26.3v1.3H28.8v24.2h-1.4V194.4z"/>
	<path class="st0" d="M88.7,226.2c0,11.7-6.1,18.4-15.4,18.4c-9.1,0-15-7.1-15-18.2c0-12,6.8-18.4,15.4-18.4
		C82.2,207.9,88.7,214.6,88.7,226.2z M59.8,226.2c0,9.2,4.6,17,13.5,17c9,0,13.9-7.3,13.9-17c0-9.4-4.8-17.1-13.7-17.1
		C64.5,209.1,59.8,217.1,59.8,226.2z"/>
	<path class="st0" d="M95.3,220.7c0-7.6,0-9.7-0.1-11.9h1.3c0.1,1.7,0.1,5.7,0.1,10.1c1.7-6.1,7.5-10.7,13.1-10.9v1.4
		c-7.1,0.3-13.1,7.4-13.1,15.4v18.7h-1.4V220.7z"/>
	<path class="st0" d="M141.7,234.1c-2.1,7.3-6.8,10.3-13.2,10.3c-9.1,0-14.7-7-14.7-18.1c0-11,6.1-18.2,15-18.2
		c7.6,0,11.7,5.2,12.8,10.5h-1.5c-1.4-5.2-4.7-9.3-11.5-9.3c-8.9,0-13.4,8-13.4,17c0,9.6,4.4,16.9,13.3,16.9c6,0,9.8-3.2,11.7-9
		H141.7z"/>
	<path class="st0" d="M147.6,225.8c0,10.8,5.4,17.2,12.9,17.2c6.8,0,10.1-3.7,12.1-8.2h1.4c-2.1,5.4-6.1,9.5-13.5,9.5
		c-10.7,0-14.4-9.6-14.4-18.1c0-11.1,6-18.1,14.5-18.1c10.7,0,14.1,9.4,14.1,16.1c0,0.8,0,1-0.1,1.7H147.6z M173.5,224.6
		c0-8.4-4.2-15.3-12.8-15.3c-7.7,0-12.6,6.4-13,15.3H173.5z"/>
	<path class="st0" d="M221.3,230.6c-2.2,6.7-7.1,13.7-18.6,13.7c-14.2,0-21.1-11.2-21.1-25c0-13.9,6.9-25.6,21.6-25.6
		c9.5,0,16.1,5.4,18.1,14.4h-1.5c-2-7.8-7.9-13.1-16.7-13.1c-14.1,0-20.1,11.3-20.1,24.2c0,12.2,6.1,23.7,19.8,23.7
		c9.5,0,14.7-5.4,17.1-12.4H221.3z"/>
	<path class="st0" d="M256.7,226.2c0,11.7-6.1,18.4-15.4,18.4c-9.1,0-15-7.1-15-18.2c0-12,6.8-18.4,15.4-18.4
		C250.2,207.9,256.7,214.6,256.7,226.2z M227.8,226.2c0,9.2,4.6,17,13.5,17c9,0,13.9-7.3,13.9-17c0-9.4-4.8-17.1-13.7-17.1
		C232.5,209.1,227.8,217.1,227.8,226.2z"/>
	<path class="st0" d="M289.7,191.1v44.1c0,2.4,0.1,6.3,0.1,8.3h-1.3c-0.1-1.2-0.1-5-0.1-8.7c-1.6,5.1-5,9.6-13.1,9.6
		c-7.5,0-14.3-5.9-14.3-17.8c0-12.6,7.3-18.6,15.2-18.6c8.6,0,11.4,5.9,12.2,8.2v-25.1H289.7z M275.2,243.1
		c8.6,0,13.2-5.9,13.2-17.6c0-10.3-4-16.1-12.5-16.1s-13.6,7.3-13.6,17.1C262.3,236.9,267.8,243.1,275.2,243.1z"/>
	<path class="st0" d="M296.3,225.8c0,10.8,5.4,17.2,12.9,17.2c6.8,0,10.1-3.7,12.1-8.2h1.4c-2.1,5.4-6.1,9.5-13.5,9.5
		c-10.7,0-14.4-9.6-14.4-18.1c0-11.1,6-18.1,14.5-18.1c10.7,0,14.1,9.4,14.1,16.1c0,0.8,0,1-0.1,1.7H296.3z M322.2,224.6
		c0-8.4-4.2-15.3-12.8-15.3c-7.7,0-12.6,6.4-13,15.3H322.2z"/>
</g>
<g>
	<linearGradient id="SVGID_1_" gradientUnits="userSpaceOnUse" x1="201.2573" y1="86.5746" x2="152.777" y2="153.7598">
		<stop  offset="0" style="stop-color:#9DF0D9"/>
		<stop  offset="1" style="stop-color:#6DE5D9"/>
	</linearGradient>
	<path class="st1" d="M201.1,103.6c-2.3,0-4.6,0.4-6.8,1.1c-0.4,0.1-0.9,0-1.1-0.4c-3.6-5-9.4-8-15.6-8c-4.3,0-8.3,1.4-11.7,3.9
		c-0.4,0.3-1,0.3-1.4-0.1c-6.5-6.5-17.3-8.2-25.9-1.7c-3.9,2.9-6.5,7.2-7.4,12c-0.6,3.3-0.4,6.6,0.6,9.7c0.1,0.4,0,0.9-0.3,1.1
		c-4.3,3.4-6.9,8.6-6.9,14.1c0,10.5,9,18.9,19.7,17.8c0.4,0,0.8,0.2,1,0.6c3,6.1,9.2,10.1,16.1,10.1c6.5,0,12.4-3.5,15.5-9
		c0.2-0.4,0.7-0.6,1.2-0.5c1.6,0.4,3.2,0.7,4.9,0.7c5.7,0,10.9-2.6,14.3-7.1c0.2-0.3,0.6-0.4,0.9-0.4c1,0.1,1.9,0.2,2.9,0.2
		c13.2,0,23.8-11.7,21.8-25.3C221.3,111.8,211.9,103.7,201.1,103.6z"/>
	<g>
		<g>
			<path class="st2" d="M177.5,107.1l-14.6,14.6c-0.2,0.2-0.6,0.3-0.9,0.1l-9-7.1c-0.3-0.3-0.8-0.3-1.2-0.1l-2.9,1.5
				c-0.4,0.2-0.6,0.6-0.6,1v18.5c0,0.4,0.2,0.8,0.6,1l2.9,1.6c0.4,0.2,0.8,0.2,1.2-0.1l9-7.2c0.3-0.2,0.7-0.2,0.9,0.1l14.6,14.7
				c0.5,0.5,1.2,0.6,1.8,0.4l7.9-3.3c0.6-0.3,1-0.8,1-1.5v-29.8c0-0.7-0.4-1.3-1-1.5l-8-3.2C178.7,106.5,178,106.6,177.5,107.1z
				 M152.3,131.5c0-2,0-8.6,0-10.6c0-0.2,0.3-0.3,0.4-0.2l5.4,5.4c0.1,0.1,0.1,0.3,0,0.3l-5.4,5.2
				C152.6,131.8,152.3,131.7,152.3,131.5z M177.6,134.1l-9.4-7.6c-0.2-0.1-0.2-0.4,0-0.5l9.4-7.3c0.2-0.2,0.5,0,0.5,0.3v14.9
				C178.2,134.1,177.8,134.2,177.6,134.1z"/>
		</g>
	</g>
</g>
</svg>
