<?xml version="1.0" encoding="UTF-8" standalone="no"?>
<!DOCTYPE svg PUBLIC "-//W3C//DTD SVG 1.1//EN" "http://www.w3.org/Graphics/SVG/1.1/DTD/svg11.dtd">
<svg version="1.1" xmlns="http://www.w3.org/2000/svg" xmlns:xlink="http://www.w3.org/1999/xlink" preserveAspectRatio="xMidYMid meet" viewBox="0 0 24 24" width="24" height="24"><defs><path d="M20.54 3.46C20.48 3.53 20.42 3.45 20.37 3.42C19.06 2.13 17.45 1.15 15.7 0.59C13.69 -0.06 11.5 -0.17 9.44 0.29C5.76 1.07 2.54 3.72 1.06 7.18C1.06 7.18 1.06 7.18 1.06 7.18C0.94 7.42 0.87 7.7 0.87 7.99C0.87 8.98 1.67 9.78 2.66 9.78C3.51 9.78 4.22 9.19 4.4 8.4C5.46 6.15 7.55 4.41 9.97 3.82C12.77 3.11 15.94 3.89 17.97 5.96C16.79 7.13 15.6 8.28 14.42 9.46C17.61 9.44 20.8 9.45 23.99 9.45C24.01 6.31 23.99 3.16 24 0.02C22.83 1.16 21.7 2.32 20.54 3.46Z" id="a1SkqP7Fd1"></path><path d="M19.71 15.43C19.71 15.43 19.71 15.43 19.71 15.43C18.69 17.71 16.63 19.51 14.2 20.15C11.38 20.92 8.13 20.17 6.05 18.06C7.23 16.89 8.43 15.76 9.6 14.59C6.4 14.59 3.2 14.59 0.01 14.59C0 17.72 0 20.86 0.01 24C1.18 22.83 2.35 21.65 3.53 20.48C4.29 21.22 5.12 21.88 6.04 22.4C8.97 24.11 12.65 24.47 15.86 23.36C18.94 22.33 21.54 19.98 22.89 17.02C23.08 16.74 23.2 16.39 23.2 16.02C23.2 15.03 22.39 14.23 21.41 14.23C20.62 14.23 19.96 14.73 19.71 15.43Z" id="a1icDMoPNW"></path></defs><g><g><g><use xlink:href="#a1SkqP7Fd1" opacity="1" fill="#c90000" fill-opacity="1"></use><g><use xlink:href="#a1SkqP7Fd1" opacity="1" fill-opacity="0" stroke="#000000" stroke-width="1" stroke-opacity="0"></use></g></g><g><use xlink:href="#a1icDMoPNW" opacity="1" fill="#001fed" fill-opacity="1"></use><g><use xlink:href="#a1icDMoPNW" opacity="1" fill-opacity="0" stroke="#000000" stroke-width="1" stroke-opacity="0"></use></g></g></g></g></svg>